<?xml version="1.0" standalone="no"?>
<!DOCTYPE svg PUBLIC "-//W3C//DTD SVG 20010904//EN"
 "http://www.w3.org/TR/2001/REC-SVG-20010904/DTD/svg10.dtd">
<svg version="1.0" xmlns="http://www.w3.org/2000/svg"
 width="512.000000pt" height="512.000000pt" viewBox="0 0 512.000000 512.000000"
 preserveAspectRatio="xMidYMid meet">
<metadata>
Created by potrace 1.14, written by Peter Selinger 2001-2017
</metadata>
<g transform="translate(0.000000,512.000000) scale(0.100000,-0.100000)"
fill="#000000" stroke="none">
<path d="M1850 4558 c-111 -19 -230 -110 -280 -215 -27 -57 -48 -139 -44 -170
3 -17 -7 -27 -49 -51 -94 -53 -162 -138 -195 -242 -16 -50 -20 -85 -21 -170
l-2 -75 -37 -17 c-91 -42 -168 -136 -203 -248 -17 -56 -20 -92 -20 -257 l-1
-192 -26 -28 c-15 -16 -81 -87 -147 -158 -66 -72 -146 -158 -178 -192 -33 -34
-66 -72 -75 -85 -15 -21 -17 -107 -17 -933 l0 -910 27 -30 26 -30 1422 0
c1159 -1 1427 2 1448 13 19 9 58 66 128 185 56 95 237 404 404 687 166 283
311 531 322 550 11 19 68 116 126 215 l106 180 1 578 c0 318 -3 586 -7 597
-14 38 -50 50 -147 52 l-91 1 0 56 c-1 87 -10 131 -40 198 -37 82 -111 155
-198 196 l-67 32 -427 3 -428 3 0 52 c-1 182 -106 332 -276 392 -44 16 -99 18
-519 19 -259 1 -491 -2 -515 -6z m1002 -182 c53 -26 105 -82 123 -135 9 -28
15 -81 15 -142 0 -108 10 -141 47 -158 16 -8 166 -11 476 -11 l452 0 52 -24
c57 -27 106 -84 123 -145 6 -22 10 -261 10 -636 l-1 -600 -24 -50 c-28 -59
-52 -91 -61 -82 -4 4 -8 219 -9 479 -3 511 -3 517 -59 612 -30 52 -110 128
-164 155 -76 39 -123 42 -534 43 -363 0 -398 1 -398 16 -4 121 -16 178 -52
249 -40 80 -106 146 -188 186 l-65 32 -451 3 -452 3 8 32 c20 89 79 157 156
180 30 9 168 12 500 11 420 0 462 -2 496 -18z m-274 -392 c51 -21 100 -70 124
-124 16 -35 21 -72 24 -160 2 -63 6 -125 9 -137 12 -51 28 -53 517 -53 418 0
456 -2 494 -19 50 -23 111 -92 126 -145 9 -30 12 -214 13 -681 0 -635 0 -640
-21 -685 -12 -25 -33 -55 -46 -68 l-25 -22 1 437 c1 474 -3 533 -49 624 -36
70 -120 152 -192 186 l-58 28 -430 5 -430 5 -2 65 c-6 194 -109 341 -281 402
-54 19 -83 20 -489 20 l-433 0 0 61 c1 119 48 207 134 252 l50 25 463 0 c396
0 469 -2 501 -16z m-264 -508 c52 -22 102 -72 126 -127 18 -42 22 -71 22 -163
1 -120 13 -161 51 -175 12 -5 227 -9 477 -10 l454 0 45 -24 c54 -27 106 -91
122 -150 13 -48 17 -1244 5 -1312 -4 -21 -15 -53 -23 -70 -17 -33 -62 -85 -75
-85 -4 0 -8 238 -8 529 0 326 -4 540 -10 556 -5 14 -23 31 -39 38 -21 9 -300
12 -1160 12 l-1131 0 0 396 c0 342 2 402 17 444 19 58 83 126 133 142 56 18
951 17 994 -1z m2081 -540 l0 -503 -158 -269 c-87 -148 -164 -278 -170 -289
-7 -11 -19 -31 -28 -45 -9 -14 -29 -47 -44 -75 -32 -58 -260 -448 -284 -485
-8 -14 -21 -34 -27 -45 -6 -11 -47 -83 -92 -159 l-82 -140 0 120 0 120 51 22
c100 44 193 161 219 275 5 26 11 87 12 136 l1 88 50 28 c69 39 134 109 168
180 34 72 40 104 43 213 2 45 5 83 7 85 2 1 25 13 52 26 93 47 171 152 196
262 6 25 10 237 11 498 0 249 2 457 5 460 2 4 19 5 37 3 l33 -4 0 -502z
m-3397 -358 l-3 -83 -77 0 c-43 0 -78 2 -78 4 0 2 23 27 51 56 28 29 60 64 72
79 11 14 25 26 29 26 5 0 8 -37 6 -82z m2339 -1053 l-2 -800 -1302 0 c-717 0
-1304 2 -1304 5 -6 22 -3 1586 2 1590 4 3 592 5 1308 5 l1301 0 -3 -800z"/>
</g>
</svg>
